<svg version="1.2" xmlns="http://www.w3.org/2000/svg" viewBox="0 0 102 102" width="102" height="102"><style>.a{fill:#f6f6f6;stroke:#9b59b6;stroke-linejoin:round;stroke-width:6}.b{fill:#9b59b6}</style><path class="a" d="m1 1h100v100h-100z"/><path fill-rule="evenodd" class="b" d="m51 32c10.5 0 19 8.5 19 19 0 10.5-8.5 19-19 19-10.5 0-19-8.5-19-19 0-10.5 8.5-19 19-19zm-15.2 19c0 3.7 1.3 7 3.5 9.7 1.6-2.8 5.7-8.2 13-10.2q-0.7-1.6-1.4-3c-7 2.7-12.2 2.9-15.1 2.6q0 0.5 0 0.9zm15.2 15.2c2.2 0 4.2-0.5 6.1-1.3-0.7-4.2-2.1-8.2-3.6-11.8-4.3 1.2-8.8 3.9-12.1 9.7 2.6 2.1 5.9 3.4 9.6 3.4zm-6.5-28.9c-4.1 1.9-7.2 5.6-8.3 10.1 3.9 0 9-0.6 13.4-2.2-2-3.6-3.9-6.4-5.1-7.9zm18.1 3.9c-3.1 2.1-6 3.8-8.7 5q0.9 1.9 1.7 3.6c3-0.4 6.6-0.2 10.6 0.8-0.1-3.5-1.4-6.8-3.6-9.4zm-2.8 22.2c3.3-2.4 5.7-6.1 6.3-10.3-1.9-0.4-5.4-1.1-9.4-0.6 2.1 5.5 2.9 9.8 3.1 10.9zm-8.8-27.6q-1.9 0-3.6 0.4c2 2.5 3.8 5.2 5.2 7.7 4-1.8 6.6-3.8 7.8-4.9-2.6-2-5.9-3.2-9.4-3.2z"/></svg>