<svg version="1.2" xmlns="http://www.w3.org/2000/svg" viewBox="0 0 51 64" width="51" height="64"><style>.a{fill:#9b59b6}</style><path fill-rule="evenodd" class="a" d="m14.9 53.3l-4.8 8.5c-1.2 2.1-3.8 2.8-5.9 1.6-2-1.2-2.7-3.8-1.5-5.9l5.8-8.4c0 0 0.3 3.2 2.1 4.2 1.8 1.1 4.3 0 4.3 0zm-2.2-3.6c-12.1-7.3-16.3-23.6-9.3-36.4 7.1-12.7 22.7-17.1 34.8-9.7 10 6 14.6 17.9 12.2 29-1.2-6.9-4.6-18.2-14.3-23.2-13.2-6.9-24.4 2-27.6 7.7-4.9 8.7-0.6 20.3 6.4 25.6 8.5 6.4 20.5 5.7 23.6-2.5 4.5-12.4-4.5-19.4-8.7-19.8-7.8-0.9-9.9 2.9-11.3 6.7-3.6 9.2 7 9.2 7 9.2 0 0-4.3-10.7 2.3-9.4 4.4 0.9 8 4.7 5.8 8.5-3.1 5.6-9.3 10.3-15 5.3-10-8.7-7.9-16.3-6.1-19.6 1.3-2.5 6.3-12 19.4-6.2 15.2 6.7 14.4 21.7 12.9 29.2-7.9 9.5-21.3 12.1-32.1 5.6z"/></svg>