<svg version="1.2" xmlns="http://www.w3.org/2000/svg" viewBox="0 0 64 64" width="64" height="64"><style>.a{fill:#9b59b6}</style><path fill-rule="evenodd" class="a" d="m10.3 2h33.1l-6.2 6.2h-24.8c-3.4 0-6.2 2.8-6.2 6.2v37.2c0 3.4 2.8 6.2 6.2 6.2h37.2c3.4 0 6.2-2.8 6.2-6.2v-24.8l6.2-6.2v33.1c0 5.7-4.7 10.3-10.4 10.3h-41.3c-5.7 0-10.3-4.6-10.3-10.3v-41.3c0-5.7 4.6-10.4 10.3-10.4zm38.4 3.3l10 9.8-21.8 21.7-9.9-9.8zm11.4 8.3l-9.9-9.8 2.9-3c1.1-1.1 2.8-1.1 3.9-0.1l6.2 6.1c1 1.1 0.9 2.8-0.2 3.9zm-34.5 14.6l9.9 9.9-13.9 3.9z"/></svg>