<svg version="1.2" xmlns="http://www.w3.org/2000/svg" viewBox="0 0 102 102" width="102" height="102"><style>.a{fill:#f6f6f6;stroke:#9b59b6;stroke-linejoin:round;stroke-width:6}.b{fill:#9b59b6}</style><path class="a" d="m1 1h100v100h-100z"/><path class="b" d="m75 35.5l-4.5 4.5c0 0 0-0.4 0 0.7 0 0.8-0.1 1.6-0.3 2.4-0.1 6.2-2.1 14.4-10.2 20.8-15.9 12.7-33 1.5-33 1.5 13.5 0 13.5-4.5 13.5-4.5-3 0-9-6-9-6 1.5 1.5 4.5 0 4.5 0-7.5-4.4-7.5-8.9-7.5-8.9 1.5 1.5 4.5 0 4.5 0-7.5-6-3-13.5-3-13.5 1.5 7.5 21 10.5 21 10.5l0.2-0.2c-0.1-0.6-0.2-2.1-0.2-2.8 0-5.4 4.4-9 9.7-9 3 0 5.6 1.3 7.4 3.4l0.9-0.4 4.5-3-3 6z"/></svg>